<svg id="Bold" enable-background="new 0 0 32 32" height="512" viewBox="0 0 32 32" width="512" xmlns="http://www.w3.org/2000/svg"><path d="m26 32h-20c-3.314 0-6-2.686-6-6v-20c0-3.314 2.686-6 6-6h20c3.314 0 6 2.686 6 6v20c0 3.314-2.686 6-6 6z" fill="#ffe6e2"/><path d="m16 8c-4.41 0-8 3.587-8 8 0 4.41 3.59 8 8 8s8-3.59 8-8c0-4.413-3.59-8-8-8zm-7.193 8c0-1.042.222-2.032.623-2.926l3.432 9.4c-2.401-1.168-4.055-3.629-4.055-6.474zm7.193 7.194c-.707 0-1.387-.103-2.032-.294l2.158-6.271 2.21 6.058c.016.036.032.067.052.1-.746.261-1.549.407-2.388.407zm.99-10.564c.432-.023.822-.068.822-.068.387-.045.342-.616-.045-.594 0 0-1.164.09-1.916.09-.707 0-1.894-.09-1.894-.09-.387-.023-.432.571-.045.594 0 0 .367.045.755.067l1.12 3.071-1.574 4.72-2.619-7.79c.432-.023.822-.067.822-.067.387-.045.342-.616-.045-.594 0 0-1.164.09-1.916.09-.136 0-.294-.003-.465-.01 1.287-1.952 3.497-3.242 6.01-3.242 1.871 0 3.577.716 4.858 1.887-.032-.003-.061-.006-.094-.006-.707 0-1.206.616-1.206 1.277 0 .593.342 1.094.707 1.687.274.478.594 1.094.594 1.984 0 .616-.235 1.329-.548 2.326l-.716 2.397zm5.323-.081c.562 1.026.881 2.2.881 3.452 0 2.655-1.439 4.971-3.577 6.216l-.001-.001 2.197-6.352c.409-1.026.548-1.845.548-2.577.001-.264-.015-.51-.048-.738z" fill="#fc573b"/></svg>